Jump_normalized_Motion_pl02
version=1
nRows=12
nColumns=43
inDegrees=yes
endheader
time		pelvis_tilt		pelvis_list		pelvis_rotation		pelvis_tx		pelvis_ty		pelvis_tz		hip_flexion_r		hip_adduction_r		hip_rotation_r		knee_angle_r		ankle_angle_r		subtalar_angle_r		mtp_angle_r		hip_flexion_l		hip_adduction_l		hip_rotation_l		knee_angle_l		ankle_angle_l		subtalar_angle_l		mtp_angle_l		lumbar_extension		lumbar_bending		lumbar_rotation		neck_flexion		neck_lateral_bending		neck_rotation		arm_flex_r		arm_add_r		arm_rot_r		elbow_flex_r		pro_sup_r		wrist_flex_r		wrist_dev_r		hand_finger_flex_r		arm_flex_l		arm_add_l		arm_rot_l		elbow_flex_l		pro_sup_l		wrist_flex_l		wrist_dev_l		hand_finger_flex_l		
3.150000		-0.968295		-33.878497		89.534052		-0.002024		1.664101		1.514524		87.301082		-4.681741		11.454343		-130.068798		3.353424		12.944060		32.665141		79.890939		-10.535157		4.181685		-128.001150		30.341768		14.837087		20.149753		-34.046181		-3.473389		-1.520634		36.944389		7.484306		-0.545842		127.825360		-3.476858		24.256909		51.785275		86.613990		-3.483875		-9.546367		-36.758074		127.625999		-5.097074		22.804176		48.546100		93.293474		-12.351463		-8.857129		-15.502087		
3.152652		-0.837216		-33.800583		89.692110		-0.002532		1.665146		1.509748		86.746259		-4.768164		11.400873		-129.926861		2.627759		13.135961		32.653249		79.220099		-10.485046		4.177571		-127.799880		30.110027		14.832772		20.250068		-33.761269		-3.324662		-1.548863		36.428539		7.587429		-0.573070		127.804394		-3.269056		23.941567		51.595838		86.904141		-3.425903		-9.605540		-36.887874		127.592995		-4.932573		22.427151		48.334690		93.528025		-12.415977		-9.015237		-15.497764		
3.155303		-0.717928		-33.823927		89.799640		-0.003002		1.665940		1.504964		86.380598		-4.770340		11.414124		-129.791459		2.322444		13.210355		32.647962		78.642236		-10.503762		4.169411		-127.547030		29.938379		14.822767		20.283964		-33.390752		-3.183592		-1.549646		36.172738		7.659223		-0.567484		127.806078		-3.117499		23.826382		51.515997		87.041096		-3.414123		-9.667690		-36.928485		127.610229		-4.882745		22.182769		48.162161		93.656708		-12.471779		-9.121658		-15.494229		
3.157955		-0.425629		-33.322500		89.974166		-0.003356		1.667670		1.499861		85.291947		-4.782637		11.145203		-129.585890		1.336792		13.314124		32.621588		77.590179		-10.592695		4.257968		-127.413547		29.495479		14.692930		20.485398		-33.557359		-2.965610		-1.540409		35.181792		7.834942		-0.446829		127.729060		-2.783953		23.321805		51.061464		87.766880		-3.388226		-10.112463		-37.081737		127.491502		-4.470374		21.230760		47.696858		94.505283		-12.619437		-9.847087		-15.383490		
3.160606		0.085182		-32.601477		90.086308		-0.003156		1.669631		1.494297		84.010004		-4.440238		10.731287		-129.333460		1.321578		13.003242		32.563818		76.246741		-11.004187		4.579628		-127.203722		29.108098		14.388004		20.976079		-33.979325		-2.652476		-1.124644		34.782284		7.912525		-0.090116		127.820751		-2.411969		22.813231		50.216965		89.425830		-3.083721		-11.155556		-37.277682		127.468779		-3.903098		19.903014		46.768212		96.641970		-12.501633		-11.246577		-14.935624		
3.163258		0.174474		-32.596350		90.246562		-0.003675		1.670477		1.489406		83.603579		-4.553433		10.667427		-129.176079		0.589452		13.123689		32.556689		75.669271		-10.995477		4.493792		-126.962047		28.898404		14.470562		21.019308		-33.604414		-2.505347		-1.259749		34.429754		7.974697		-0.184199		127.648016		-2.340695		22.878273		50.173545		89.553508		-3.057754		-11.226683		-37.309276		127.332765		-3.904647		19.648380		46.681887		96.811276		-12.586384		-11.305987		-14.924778		
3.165909		0.314691		-32.331252		90.409470		-0.004285		1.671794		1.484357		82.844744		-4.683462		10.520134		-128.971844		-0.644877		13.127030		32.540808		74.854758		-10.939313		4.491158		-126.770138		28.460722		14.552350		21.121036		-33.487551		-2.352232		-1.372260		33.466632		8.104247		-0.244575		127.422311		-2.266999		22.863220		50.008077		89.855859		-3.127549		-11.517378		-37.420069		127.002006		-3.717033		18.999659		46.637322		97.266399		-12.849345		-11.592576		-14.916184		
3.168561		0.452913		-32.137666		90.514272		-0.004563		1.672783		1.479166		82.266110		-4.681983		10.393637		-128.790011		-1.234334		12.953010		32.528130		74.066939		-10.990292		4.513369		-126.523361		28.098348		14.561156		21.203029		-33.260399		-2.223925		-1.355992		32.886900		8.186150		-0.198992		127.189559		-2.173392		22.904144		49.765525		90.119030		-3.200243		-11.791211		-37.513202		126.697009		-3.558557		18.478544		46.454763		97.687172		-13.067192		-11.819675		-14.905698		
3.171212		0.719809		-31.731652		90.542573		-0.004659		1.674167		1.473760		81.433337		-4.480518		10.172007		-128.535762		-1.929797		12.470816		32.506965		73.056174		-11.176756		4.670567		-126.268644		27.602387		14.455064		21.365456		-33.269476		-2.054283		-1.092684		32.087573		8.266801		-0.012855		127.019997		-2.070940		22.960078		49.328766		90.605714		-3.372807		-12.457044		-37.676294		126.314755		-3.261118		17.686518		46.213387		98.635586		-13.437359		-12.283965		-14.868477		
3.173864		0.993113		-31.279840		90.601657		-0.004758		1.675506		1.468256		80.547783		-4.325419		9.881285		-128.287356		-2.787592		12.019338		32.484798		72.030100		-11.420171		4.762639		-126.082027		27.100722		14.358722		21.539813		-33.296970		-1.866472		-0.907829		31.281695		8.333447		0.153852		126.767914		-1.970957		23.062745		48.898438		91.115869		-3.526104		-13.151800		-37.837384		125.884425		-2.992520		16.872877		45.940879		99.637344		-13.814092		-12.750494		-14.824703		
3.176515		1.085689		-31.074849		90.743319		-0.005342		1.676570		1.463071		79.971523		-4.460464		9.656756		-128.073652		-4.111956		12.070702		32.476269		71.271941		-11.382637		4.716977		-125.856245		26.759111		14.399153		21.601304		-33.123335		-1.713796		-1.018415		30.642350		8.365648		0.107398		126.443155		-1.976876		23.192865		48.886523		91.292752		-3.500446		-13.425806		-37.869467		125.533118		-3.025862		16.557210		45.919899		100.029779		-14.009109		-12.900367		-14.833437		
3.179167		1.633720		-30.340574		90.803303		-0.005390		1.678539		1.457310		78.689426		-4.100744		9.048960		-127.699623		-5.546638		11.498042		32.424273		69.986295		-11.812933		5.036766		-125.658566		26.159765		14.156010		22.211246		-33.509689		-1.329926		-0.577152		29.779080		8.283877		0.296438		126.300489		-1.824640		23.263117		48.157870		92.269754		-3.419302		-14.851063		-38.077711		125.046546		-2.662018		15.229575		45.640198		102.963071		-14.623669		-13.362530		-14.640350		
